<svg xmlns="http://www.w3.org/2000/svg" width="157.55" height="107.69" viewBox="0 0 135.243 80.279">
  <g id="Grupo_21" data-name="Grupo 21" transform="translate(-86.752 -74)">
    <g id="Grupo_20" data-name="Grupo 20">
      <g id="Grupo_1" data-name="Grupo 1" transform="translate(119.537 74)">
        <path id="Caminho_1" data-name="Caminho 1" d="M409.426,359.531l-1.158-4a14.781,14.781,0,0,0,10.007-9.786l.758-2.411,2.22,1.207a9.586,9.586,0,0,0,4.528,1.156h.036a9.569,9.569,0,0,0,7.26-15.8l-1.471-1.712,1.826-1.327a14.883,14.883,0,0,0,6.121-11.942,14.821,14.821,0,0,0-14.766-14.876,14.88,14.88,0,0,0-3.794.477l-2.209.574-.368-2.252a18.35,18.35,0,0,0-18.106-15.425h-.068a18.468,18.468,0,0,0-16,9.3l-1.39,2.434-1.927-2.036a9.487,9.487,0,0,0-6.914-2.995h-.036a9.583,9.583,0,0,0-9.571,9.537c0,.073,0,.145,0,.217l.076,2.748-2.6-.564a14.831,14.831,0,0,0-16.8,8.661l-3.827-1.635a18.956,18.956,0,0,1,17.461-11.528h.071q.8,0,1.6.074a13.761,13.761,0,0,1,13.63-11.671,13.592,13.592,0,0,1,7.971,2.583,22.58,22.58,0,0,1,40.083,7.523,19.426,19.426,0,0,1,2.728-.186,18.983,18.983,0,0,1,18.912,19.053,19.065,19.065,0,0,1-6.221,13.976,13.732,13.732,0,0,1-11.678,20.955h-.052a13.784,13.784,0,0,1-4.339-.72A18.928,18.928,0,0,1,409.426,359.531Z" transform="translate(-341.259 -279.252)" fill="#fff"/>
      </g>
      <path id="Caminho_15" data-name="Caminho 15" d="M.752,0,.793-.205,2.8-3.541v-.014L5.018-16.133l-.834-3.336.041-.205h8.531a18.89,18.89,0,0,1,4.457.485,9.93,9.93,0,0,1,3.4,1.477A6.725,6.725,0,0,1,22.791-15.2a7.97,7.97,0,0,1,.766,3.616,11.81,11.81,0,0,1-1.032,5.113,9.741,9.741,0,0,1-2.905,3.609,12.8,12.8,0,0,1-4.5,2.146A22.341,22.341,0,0,1,9.283,0ZM8.7-.889H9.939a7.478,7.478,0,0,0,1.935-.246,5.11,5.11,0,0,0,1.716-.827,6.1,6.1,0,0,0,1.429-1.518A9.194,9.194,0,0,0,16.105-5.8a18.371,18.371,0,0,0,.7-3.254,33.246,33.246,0,0,0,.246-4.3,11.211,11.211,0,0,0-.226-2.4,4.577,4.577,0,0,0-.711-1.7,2.934,2.934,0,0,0-1.251-1,4.635,4.635,0,0,0-1.832-.328H11.854ZM32.512-14.205l-.492,2.037-.041.205L31.295-9.01H31.4a13,13,0,0,1,1.313-2.051A13.515,13.515,0,0,1,34.323-12.8,8.609,8.609,0,0,1,36-14.014a3.3,3.3,0,0,1,1.538-.451,1.336,1.336,0,0,1,.28.034.946.946,0,0,1,.308.13L36.846-9.01H36.6a11.137,11.137,0,0,0-1.162-1.155,8.789,8.789,0,0,0-1.326-.95q-.615,0-1.326.943a14.932,14.932,0,0,0-1.49,2.611L30.037-.137,24.021.137l1.613-9.16.328-1.859L24.91-12.715l.027-.178L32.4-14.355Zm13.344.574a.979.979,0,0,0-.738.362,3.483,3.483,0,0,0-.6,1.053A12.769,12.769,0,0,0,44-10.534q-.239.991-.458,2.249l2.611-.273q.26-1.436.383-2.413a9.594,9.594,0,0,0,.1-1.565,1.543,1.543,0,0,0-.219-.841A.659.659,0,0,0,45.855-13.631Zm4.238,9.9A10.811,10.811,0,0,1,48.822-2,7.167,7.167,0,0,1,47.3-.725a6.692,6.692,0,0,1-1.846.786,8.916,8.916,0,0,1-2.27.267,7.117,7.117,0,0,1-2.583-.437,5.263,5.263,0,0,1-1.9-1.224,5.279,5.279,0,0,1-1.172-1.873,6.8,6.8,0,0,1-.4-2.386,8.628,8.628,0,0,1,.7-3.479,8.515,8.515,0,0,1,1.925-2.782,8.856,8.856,0,0,1,2.9-1.839,9.74,9.74,0,0,1,3.626-.663,6.67,6.67,0,0,1,2.734.513,4.731,4.731,0,0,1,1.846,1.408,4.854,4.854,0,0,1,.93,2.085,7.007,7.007,0,0,1,0,2.543H43.463a.121.121,0,0,0-.014.055Q43.2-2.721,46.963-2.721a4.885,4.885,0,0,0,1.06-.1,3.893,3.893,0,0,0,.807-.267,3.125,3.125,0,0,0,.608-.369q.26-.205.479-.4Zm20.289.547A8.225,8.225,0,0,1,69.18-1.7,7.515,7.515,0,0,1,67.737-.6a6.972,6.972,0,0,1-1.613.69,6.239,6.239,0,0,1-1.716.239A2.724,2.724,0,0,1,62.973.007a1.692,1.692,0,0,1-.725-.978,4.356,4.356,0,0,1-.123-1.641,18.327,18.327,0,0,1,.369-2.311L62.6-5.5h-.164A11.343,11.343,0,0,1,61.325-3.22a9.981,9.981,0,0,1-1.5,1.846A7.165,7.165,0,0,1,58.1-.13a4,4,0,0,1-1.812.458,3.671,3.671,0,0,1-1.675-.362,3.392,3.392,0,0,1-1.2-1.012A4.475,4.475,0,0,1,52.685-2.6a7.862,7.862,0,0,1-.239-2,10.212,10.212,0,0,1,.335-2.639,10.151,10.151,0,0,1,.937-2.338,9.461,9.461,0,0,1,1.449-1.962,9.409,9.409,0,0,1,1.859-1.5,8.984,8.984,0,0,1,2.167-.964,8.365,8.365,0,0,1,2.386-.342,2.561,2.561,0,0,1,.786.116,3.317,3.317,0,0,1,.656.287,3.3,3.3,0,0,1,.526.376,5.444,5.444,0,0,1,.4.383l5.934-1.162L67.854-3.391a1.9,1.9,0,0,0-.014.882.364.364,0,0,0,.369.267,2.18,2.18,0,0,0,.827-.239,3.838,3.838,0,0,0,1.142-.9Zm-11.074.943a1.557,1.557,0,0,0,.882-.5,6.594,6.594,0,0,0,1.121-1.408,11.618,11.618,0,0,0,1.032-2.194,11.623,11.623,0,0,0,.615-2.844L63.451-12a3.188,3.188,0,0,0-.253-.7,2.77,2.77,0,0,0-.328-.513,1.332,1.332,0,0,0-.349-.308.666.666,0,0,0-.328-.1,1.547,1.547,0,0,0-.984.39,4.158,4.158,0,0,0-.9,1.073,8.981,8.981,0,0,0-.759,1.634,17.387,17.387,0,0,0-.595,2.078,21.548,21.548,0,0,0-.39,2.386,23.645,23.645,0,0,0-.137,2.557,1.971,1.971,0,0,0,.082.615,1.086,1.086,0,0,0,.212.39.778.778,0,0,0,.28.205A.789.789,0,0,0,59.309-2.242ZM79.584-14.205l-.437,1.982-.014.068-.711,3.131h.109a11.808,11.808,0,0,1,.622-1.251,10.237,10.237,0,0,1,.82-1.224,10.107,10.107,0,0,1,1.012-1.114,6.989,6.989,0,0,1,1.183-.909A6.183,6.183,0,0,1,83.5-14.13a4.787,4.787,0,0,1,1.47-.226,2.7,2.7,0,0,1,2.358.937,4.348,4.348,0,0,1,.321,3.11L87.363-9h.109a10.121,10.121,0,0,1,1.039-2.023,8.629,8.629,0,0,1,1.477-1.709,7.079,7.079,0,0,1,1.839-1.183,5.232,5.232,0,0,1,2.14-.444,5.955,5.955,0,0,1,.738.048,2.489,2.489,0,0,1,.738.212,2.187,2.187,0,0,1,.649.465,2.164,2.164,0,0,1,.472.8,4.281,4.281,0,0,1,.212,1.224,8.055,8.055,0,0,1-.144,1.736L95.5-3.377a1.708,1.708,0,0,0,0,.875.369.369,0,0,0,.355.26,2.144,2.144,0,0,0,.827-.232,3.879,3.879,0,0,0,1.142-.9l.205.191A7.8,7.8,0,0,1,95.4-.581a6.5,6.5,0,0,1-3.343.909,3.025,3.025,0,0,1-1.285-.26,2.022,2.022,0,0,1-.889-.793,3.127,3.127,0,0,1-.41-1.333,5.885,5.885,0,0,1,.164-1.88l1.258-7.082a1.869,1.869,0,0,0,.007-.766.334.334,0,0,0-.308-.287.949.949,0,0,0-.533.219,4.054,4.054,0,0,0-.629.588,9.011,9.011,0,0,0-.656.841q-.328.472-.615.978a10.185,10.185,0,0,0-.5,1,5.616,5.616,0,0,0-.308.889L86.078-.137,80.035.137l1.873-10.582a5.7,5.7,0,0,0,.123-1.176q-.014-.451-.355-.451a1.325,1.325,0,0,0-.8.485,9.023,9.023,0,0,0-.984,1.2,13.354,13.354,0,0,0-.909,1.5,7.011,7.011,0,0,0-.574,1.4L77.123-.178,71.066.137l1.682-9.16.287-1.859-1.08-1.8L72-12.893l7.465-1.463ZM8.326,25,5.51,8.854,3.979,5.531l.041-.205H14.479l-.027.205L12.359,8.867l1.217,9.693,3.213-5.92-.656-3.814-.971-3.295.027-.205H25.7l-.027.205-2.639,3.35,1.326,9.42,5-9.434L27.727,5.531l.027-.205h5.605l-.027.205L30.338,8.867h-.014L21.7,25H18.963L17.021,13.926,10.965,25ZM39.348,10.795l-.492,2.037-.041.205-.684,2.953h.109a13,13,0,0,1,1.313-2.051A13.515,13.515,0,0,1,41.159,12.2a8.609,8.609,0,0,1,1.682-1.21,3.3,3.3,0,0,1,1.538-.451,1.336,1.336,0,0,1,.28.034.946.946,0,0,1,.308.13L43.682,15.99h-.246a11.137,11.137,0,0,0-1.162-1.155,8.789,8.789,0,0,0-1.326-.95q-.615,0-1.326.943a14.933,14.933,0,0,0-1.49,2.611l-1.258,7.424-6.016.273,1.613-9.16.328-1.859-1.053-1.832.027-.178,7.465-1.463Zm14.287,11.02A7.8,7.8,0,0,1,51,24.419a6.5,6.5,0,0,1-3.343.909,3.071,3.071,0,0,1-1.292-.26,2.056,2.056,0,0,1-.9-.793,3.13,3.13,0,0,1-.424-1.333,5.733,5.733,0,0,1,.157-1.88l1.135-6.221.123-.725-1.723-1.928.041-.205,8.258-1.34.109.15-.383,2.174-.328,1.873-1.34,6.781h.014a1.707,1.707,0,0,0,0,.875.369.369,0,0,0,.355.26,2.144,2.144,0,0,0,.827-.232,3.879,3.879,0,0,0,1.142-.9Zm-.1-15.545a3.112,3.112,0,0,1-.294,1.347,3.282,3.282,0,0,1-.807,1.073,3.789,3.789,0,0,1-1.189.7,4.126,4.126,0,0,1-1.456.253,3.364,3.364,0,0,1-1.121-.178,2.377,2.377,0,0,1-.854-.506,2.264,2.264,0,0,1-.54-.786,2.617,2.617,0,0,1-.191-1.019,3.142,3.142,0,0,1,.287-1.333,3.394,3.394,0,0,1,.793-1.087,3.657,3.657,0,0,1,1.189-.725,4.123,4.123,0,0,1,1.477-.26,3.09,3.09,0,0,1,1.114.191,2.573,2.573,0,0,1,.854.526,2.275,2.275,0,0,1,.547.8A2.6,2.6,0,0,1,53.539,6.27Zm5.619,19.059a6.16,6.16,0,0,1-1.777-.246,3.61,3.61,0,0,1-1.388-.752,2.925,2.925,0,0,1-.827-1.278,3.655,3.655,0,0,1-.068-1.825l1.709-9.652H55.139l.014-.123,2.27-1.217,5.783-2.926h.3l-.656,3.678h3.965l-.109.588H62.754l-1.736,9.844a1.967,1.967,0,0,0-.007.711,1.552,1.552,0,0,0,.205.54,1.061,1.061,0,0,0,.349.349.836.836,0,0,0,.438.123,4.834,4.834,0,0,0,1.955-.355,4.763,4.763,0,0,0,1.313-.82l.191.246a12.577,12.577,0,0,1-1.442,1.408,7.965,7.965,0,0,1-1.483.971,6.673,6.673,0,0,1-1.6.561A8.515,8.515,0,0,1,59.158,25.328Zm16.5-13.959a.979.979,0,0,0-.738.362,3.483,3.483,0,0,0-.6,1.053,12.77,12.77,0,0,0-.513,1.682q-.239.991-.458,2.249l2.611-.273q.26-1.436.383-2.413a9.6,9.6,0,0,0,.1-1.565,1.543,1.543,0,0,0-.219-.841A.659.659,0,0,0,75.66,11.369Zm4.238,9.9A10.812,10.812,0,0,1,78.627,23a7.167,7.167,0,0,1-1.518,1.271,6.692,6.692,0,0,1-1.846.786,8.916,8.916,0,0,1-2.27.267,7.117,7.117,0,0,1-2.583-.437,5.127,5.127,0,0,1-3.069-3.1,6.8,6.8,0,0,1-.4-2.386,8.628,8.628,0,0,1,.7-3.479,8.515,8.515,0,0,1,1.925-2.782,8.856,8.856,0,0,1,2.9-1.839,9.74,9.74,0,0,1,3.626-.663,6.67,6.67,0,0,1,2.734.513,4.731,4.731,0,0,1,1.846,1.408,4.854,4.854,0,0,1,.93,2.085,7.007,7.007,0,0,1,0,2.543H73.268a.121.121,0,0,0-.014.055q-.247,5.031,3.514,5.031a4.885,4.885,0,0,0,1.06-.1,3.893,3.893,0,0,0,.807-.267,3.125,3.125,0,0,0,.608-.369q.26-.205.479-.4ZM90.33,10.795l-.492,2.037-.041.205-.684,2.953h.109a13,13,0,0,1,1.313-2.051A13.515,13.515,0,0,1,92.142,12.2a8.609,8.609,0,0,1,1.682-1.21,3.3,3.3,0,0,1,1.538-.451,1.336,1.336,0,0,1,.28.034.946.946,0,0,1,.308.13L94.664,15.99h-.246a11.137,11.137,0,0,0-1.162-1.155,8.789,8.789,0,0,0-1.326-.95q-.615,0-1.326.943a14.932,14.932,0,0,0-1.49,2.611l-1.258,7.424-6.016.273,1.613-9.16.328-1.859-1.053-1.832.027-.178,7.465-1.463Z" transform="translate(86 126.141)" fill="#fff"/>
    </g>
    <path id="Caminho_2" data-name="Caminho 2" d="M666.945,398.248a8.2,8.2,0,0,0-9.1-7.189c-.26.031-.515.074-.766.128a12.147,12.147,0,0,0-18.158-12.735,12.153,12.153,0,0,1,15.747,13.67c-.065.369-.149.733-.248,1.091a9.079,9.079,0,0,1,1.542-.32c.225-.027.448-.042.671-.052a9.1,9.1,0,0,1,9.421,10.2,8.162,8.162,0,0,0,.9-4.791Z" transform="translate(-467.768 -285.828)" fill="#fff"/>
  </g>
</svg>