<svg xmlns="http://www.w3.org/2000/svg" width="157.55" height="107.69" viewBox="0 0 97.872 59.972">
  <g id="Grupo_2" data-name="Grupo 2" transform="translate(-147.841 -279.252)">
    <g id="Grupo_1" data-name="Grupo 1" transform="translate(171.977 279.252)">
      <path id="Caminho_1" data-name="Caminho 1" d="M390.317,337.027l-.834-2.876a10.638,10.638,0,0,0,7.2-7.042l.546-1.735,1.6.869a6.9,6.9,0,0,0,3.258.832h.026a6.886,6.886,0,0,0,5.225-11.374l-1.059-1.232,1.314-.955A10.711,10.711,0,0,0,412,304.918a10.666,10.666,0,0,0-10.627-10.706,10.708,10.708,0,0,0-2.73.344l-1.59.413-.265-1.621a13.206,13.206,0,0,0-13.03-11.1h-.049a13.291,13.291,0,0,0-11.518,6.7l-1,1.752-1.387-1.465a6.827,6.827,0,0,0-4.976-2.155H364.8a6.9,6.9,0,0,0-6.888,6.863c0,.053,0,.1,0,.156l.055,1.978-1.868-.406a10.673,10.673,0,0,0-12.091,6.233l-2.754-1.177a13.642,13.642,0,0,1,12.566-8.3h.051q.576,0,1.152.053a9.9,9.9,0,0,1,9.809-8.4,9.782,9.782,0,0,1,5.736,1.859,16.25,16.25,0,0,1,28.846,5.414,13.975,13.975,0,0,1,1.963-.134A13.661,13.661,0,0,1,415,304.93a13.721,13.721,0,0,1-4.477,10.058,9.883,9.883,0,0,1-8.4,15.081h-.038a9.92,9.92,0,0,1-3.123-.518A13.622,13.622,0,0,1,390.317,337.027Z" transform="translate(-341.259 -279.252)" fill="#fff"/>
    </g>
    <text id="Dream_Writer" data-name="Dream
Writer" transform="translate(147.841 316.224)" fill="#fff" font-size="19" font-family="BlackerDisplay-HeavyItalic, Blacker Display" font-weight="800" font-style="italic"><tspan x="0" y="0">Dream</tspan><tspan x="0" y="17">Writer</tspan></text>
    <path id="Caminho_2" data-name="Caminho 2" d="M659.088,392.216a5.9,5.9,0,0,0-6.552-5.174c-.187.022-.371.053-.552.092a8.742,8.742,0,0,0-13.068-9.165,8.746,8.746,0,0,1,11.332,9.838c-.047.266-.107.527-.178.785a6.534,6.534,0,0,1,1.11-.23c.162-.019.323-.03.483-.037a6.547,6.547,0,0,1,6.78,7.34,5.874,5.874,0,0,0,.644-3.448Z" transform="translate(-429.796 -85.314)" fill="#fff"/>
  </g>
</svg>
